Coordinates
version=1
nRows=13
nColumns=17
inDegrees=yes

Units are S.I. units (second, meters, Newtons, ...)
If the header above contains a line with 'inDegrees', this indicates whether rotational values are in degrees (yes) or radians (no).

endheader
time	pelvis_tilt	pelvis_tx	pelvis_ty	hip_flexion_l	hip_flexion_r	knee_angle_l	knee_angle_r	ankle_angle_l	ankle_angle_r	lumbar_extension	FC_flexion	FC_adduction	FC_rotation	FC_tx	FC_ty	FC_tz
      5.50000000	    104.10379417	     -0.30597746	      1.04583984	     -2.31829482	    -16.73094242	    -11.61169709	     -0.51652510	     16.73170580	    -50.87187206	    -29.15902305	     91.70191333	     46.93365501	     88.82151590	      0.05926223	     -0.01034439	     -0.21277626
      5.51000000	    104.10438222	     -0.30602886	      1.04584284	     -2.31499391	    -16.73006095	    -11.61382430	     -0.51868746	     16.73957805	    -50.87253728	    -29.15850030	     91.71056637	     46.91750439	     88.82581885	      0.05927239	     -0.01021799	     -0.21288901
      5.52000000	    103.99516774	     -0.30599345	      1.04577015	     -2.18279070	    -16.58395121	    -11.63373591	     -0.55928539	     18.42671505	    -50.88882148	    -29.05700596	     90.07705716	     46.91312389	     88.79360235	      0.05671822	     -0.01487294	     -0.21291883
      5.53000000	    104.08193285	     -0.30603589	      1.04585381	     -2.29276138	    -16.70495706	    -11.61513198	     -0.51832420	     17.73835172	    -50.94550661	    -29.13913490	     90.81163824	     46.87962340	     88.78172080	      0.05786438	     -0.01270003	     -0.21297509
      5.54000000	    104.15698329	     -0.30605257	      1.04590770	     -2.40797008	    -16.80368976	    -11.55245230	     -0.49503560	     16.13201045	    -50.86525098	    -29.19993392	     92.51876115	     46.84444351	     88.69913857	      0.06044305	     -0.00801745	     -0.21287219
      5.55000000	    104.05292264	     -0.30603950	      1.04584940	     -2.26514894	    -16.66702536	    -11.60044747	     -0.53141233	     18.06533377	    -50.86932365	    -29.09293151	     90.59702085	     46.81899829	     88.69165066	      0.05751342	     -0.01321177	     -0.21300465
      5.56000000	    104.05708592	     -0.30607341	      1.04583888	     -2.27894870	    -16.65842495	    -11.57854887	     -0.55635925	     18.12502981	    -50.88006559	    -29.10547889	     90.62202783	     46.78456985	     88.63667476	      0.05741452	     -0.01326079	     -0.21291482
      5.57000000	    103.98909946	     -0.30612209	      1.04577007	     -2.16102344	    -16.57250507	    -11.63876546	     -0.56677260	     18.31044395	    -50.91289487	    -29.04804282	     90.49191023	     46.76564038	     88.61077710	      0.05703905	     -0.01372806	     -0.21299225
      5.58000000	    104.14974554	     -0.30612700	      1.04586733	     -2.39708157	    -16.78011086	    -11.54502543	     -0.52403946	     17.10616687	    -50.84221137	    -29.19642628	     91.75566555	     46.75118446	     88.55638321	      0.05909295	     -0.01009680	     -0.21298613
      5.59000000	    104.02970729	     -0.30613694	      1.04578991	     -2.21994072	    -16.62382670	    -11.60851403	     -0.55911512	     17.38300721	    -50.85451472	    -29.09055472	     91.64747705	     46.73488292	     88.47529760	      0.05859697	     -0.01104854	     -0.21294367
      5.60000000	    103.92944098	     -0.30612892	      1.04568437	     -2.08147290	    -16.48640316	    -11.64212641	     -0.59699570	     19.23968007	    -50.84705068	    -28.98989389	     89.87248134	     46.73212639	     88.41966072	      0.05558757	     -0.01611614	     -0.21294001
      5.61000000	    103.93832555	     -0.30613094	      1.04572807	     -2.09992458	    -16.49866023	    -11.62837599	     -0.60019156	     19.29187162	    -50.85309561	    -28.99493431	     89.90195233	     46.73177341	     88.35142298	      0.05557432	     -0.01605293	     -0.21308787
      5.62000000	    103.94442783	     -0.30615252	      1.04571147	     -2.09887567	    -16.50771666	    -11.68427586	     -0.59102173	     19.37429339	    -50.86367129	    -29.01381206	     89.94724437	     46.72798530	     88.30437119	      0.05591784	     -0.01606447	     -0.21312354
